<?xml version="1.0" encoding="iso-8859-1"?>
<!-- Uploaded to: SVG Repo, www.svgrepo.com, Generator: SVG Repo Mixer Tools -->
<svg height="800px" width="800px" version="1.1" id="Layer_1" xmlns="http://www.w3.org/2000/svg" xmlns:xlink="http://www.w3.org/1999/xlink" 
	 viewBox="0 0 512.002 512.002" xml:space="preserve">
<polyline style="fill:#F2F2F2;" points="365.813,225.098 365.813,351.447 338.789,351.447 338.789,225.098 "/>
<path style="fill:#F97E62;" d="M352.301,503.782L352.301,503.782c-21.218,0-37.907-18.13-36.154-39.275l7.967-96.092
	c0.794-9.589,8.81-16.967,18.432-16.967h19.509c9.622,0,17.638,7.378,18.432,16.967l7.967,96.092
	C390.208,485.652,373.519,503.782,352.301,503.782z"/>
<path style="fill:#E6E6E6;" d="M433.214,132.306c0,67.616-36.231,92.792-80.913,92.792s-80.913-25.176-80.913-92.792
	c0-9.648,0.736-19.022,2.132-28.022c8.374-54.111,40.473-94.408,78.781-94.408s70.408,40.297,78.781,94.408
	C432.479,113.284,433.214,122.659,433.214,132.306z"/>
<g>
	<path style="fill:#F2F2F2;" d="M431.084,104.284c-8.374,47.913-40.473,66.418-78.781,66.418s-70.408-18.506-78.781-66.418
		c8.374-54.111,40.473-94.408,78.781-94.408C390.609,9.877,422.709,50.174,431.084,104.284z"/>
	<polyline style="fill:#F2F2F2;" points="157.388,225.098 157.388,351.447 130.362,351.447 130.362,225.098 	"/>
</g>
<path style="fill:#76C7F4;" d="M143.875,503.782L143.875,503.782c-21.218,0-37.907-18.13-36.154-39.275l7.967-96.092
	c0.795-9.589,8.81-16.967,18.432-16.967h19.509c9.622,0,17.638,7.378,18.432,16.967l7.967,96.092
	C181.781,485.652,165.093,503.782,143.875,503.782z"/>
<path style="fill:#F2F2F2;" d="M205.599,128.835v30.803c0,35.022-28.385,63.407-63.407,63.407c-17.506,0-33.363-7.099-44.836-18.572
	C85.884,193,78.785,177.154,78.785,159.637v-30.803c0,5.835,2.363,11.132,6.187,14.956c3.835,3.824,9.11,6.187,14.956,6.187
	c11.67,0,21.132-9.462,21.132-21.143c0,5.835,2.363,11.132,6.187,14.956s9.11,6.187,14.945,6.187
	c11.67,0,21.132-9.462,21.132-21.143c0,5.835,2.363,11.132,6.187,14.956c3.824,3.824,9.121,6.187,14.956,6.187
	C196.138,149.978,205.599,140.516,205.599,128.835z"/>
<path d="M365.813,266.996c4.553,0,8.242-3.69,8.242-8.242V231.27c43.13-8.509,67.399-43.518,67.399-98.987
	c0-27.976-5.88-54.624-17.005-77.06c-2.023-4.078-6.965-5.745-11.046-3.723c-4.078,2.022-5.745,6.967-3.723,11.045
	c10.003,20.173,15.289,44.288,15.289,69.737c0,69.881-39.518,84.549-72.669,84.549c-33.152,0-72.67-14.668-72.67-84.549
	c0-31.105,7.932-60.236,22.332-82.029c13.707-20.74,31.583-32.162,50.338-32.162c20.478,0,35.525,13.192,44.542,24.26
	c2.874,3.529,8.066,4.058,11.596,1.184c3.529-2.876,4.058-8.067,1.184-11.596C393.686,12.381,373.329,1.61,352.301,1.61
	c-24.471,0-47.23,14.049-64.089,39.558c-16.163,24.456-25.065,56.816-25.065,91.117c0,55.469,24.268,90.477,67.399,98.987V346.07
	c-8.053,4.096-13.861,12.159-14.646,21.641l-7.966,96.092c-1.025,12.368,3.207,24.699,11.611,33.83
	c8.406,9.131,20.345,14.368,32.756,14.368c12.41,0,24.349-5.236,32.754-14.367c8.406-9.131,12.639-21.462,11.613-33.83
	l-7.967-96.092c-0.787-9.481-6.593-17.545-14.646-21.641v-59.843c0-4.552-3.689-8.242-8.242-8.242c-4.553,0-8.242,3.69-8.242,8.242
	v56.956H347.03V233.207c1.733,0.073,3.49,0.11,5.271,0.11s3.537-0.037,5.27-0.11v25.546
	C357.572,263.306,361.262,266.996,365.813,266.996z M362.055,359.666c5.292,0,9.781,4.132,10.219,9.407l7.967,96.092
	c0.656,7.903-1.943,15.469-7.313,21.305s-12.696,9.047-20.627,9.047s-15.257-3.213-20.628-9.048s-7.967-13.4-7.311-21.304
	l7.966-96.092c0.436-5.275,4.925-9.407,10.219-9.407H362.055z"/>
<path d="M205.597,0c-4.553,0-8.242,3.69-8.242,8.242v120.573c0,7.109-5.784,12.892-12.892,12.892s-12.894-5.784-12.894-12.892V8.242
	c0-4.552-3.689-8.242-8.242-8.242s-8.242,3.69-8.242,8.242v120.573c0,7.109-5.784,12.892-12.892,12.892
	c-7.109,0-12.892-5.784-12.892-12.892V8.242c0-4.552-3.689-8.242-8.242-8.242s-8.242,3.69-8.242,8.242v120.573
	c0,7.109-5.784,12.892-12.892,12.892c-7.109,0-12.892-5.784-12.892-12.892V8.242C87.032,3.69,83.343,0,78.79,0
	s-8.242,3.69-8.242,8.242v151.371c0,12.309,3.176,24.452,9.184,35.117c1.513,2.687,4.309,4.198,7.188,4.198
	c1.37,0,2.759-0.343,4.039-1.063c3.965-2.234,5.369-7.261,3.135-11.227c-4.62-8.2-7.062-17.546-7.062-27.027v-4.409
	c3.895,1.911,8.269,2.988,12.892,2.988c8.292,0,15.788-3.459,21.134-9.005c5.346,5.545,12.842,9.005,21.134,9.005
	c8.292,0,15.788-3.459,21.134-9.005c5.347,5.545,12.843,9.005,21.135,9.005c4.623,0,8.998-1.077,12.892-2.988v4.409
	c0,30.417-24.746,55.163-55.163,55.163c-11.896,0-23.222-3.725-32.755-10.773c-3.662-2.707-8.822-1.932-11.528,1.727
	c-2.706,3.659-1.932,8.821,1.727,11.527c6.869,5.079,14.456,8.824,22.484,11.158v117.653c-8.053,4.096-13.861,12.16-14.646,21.641
	l-7.967,96.092c-1.025,12.368,3.208,24.699,11.613,33.83c8.405,9.131,20.344,14.367,32.754,14.367
	c12.411,0,24.35-5.237,32.756-14.368c8.405-9.131,12.636-21.462,11.611-33.83l-7.966-96.092
	c-0.787-9.481-6.593-17.545-14.646-21.641V227.302c28.028-9.733,48.209-36.391,48.209-67.69V8.242C213.839,3.69,210.15,0,205.597,0z
	 M164.503,486.468c-5.371,5.835-12.698,9.048-20.628,9.048s-15.255-3.213-20.627-9.047c-5.371-5.834-7.969-13.401-7.313-21.305
	l7.967-96.092c0.436-5.275,4.925-9.407,10.219-9.407h19.509c5.292,0,9.781,4.132,10.219,9.407l7.966,96.092
	C172.47,473.068,169.874,480.634,164.503,486.468z M149.146,343.182h-10.542V231.161c1.191,0.058,2.387,0.098,3.588,0.098
	c2.346,0,4.665-0.122,6.954-0.343V343.182z"/>
</svg>